<?xml version="1.0" standalone="no"?>
<!DOCTYPE svg PUBLIC "-//W3C//DTD SVG 1.1//EN" "http://www.w3.org/Graphics/SVG/1.1/DTD/svg11.dtd" >
<!--
2013-9-30: Created.
-->
<svg>
<metadata>
Created by iconfont
</metadata>
<defs>

<font id="iconfont" horiz-adv-x="1024" >
  <font-face
    font-family="iconfont"
    font-weight="500"
    font-stretch="normal"
    units-per-em="1024"
    ascent="896"
    descent="-128"
  />
    <missing-glyph />
    
    <glyph glyph-name="mima" unicode="&#58886;" d="M394.663936 473.669632 274.464768 473.669632 274.464768 613.904384c0 30.52544 6.0416 58.983424 18.126848 85.374976 12.084224 26.396672 28.776448 49.609728 50.081792 69.639168 21.306368 20.035584 46.427136 35.776512 75.363328 47.223808 28.936192 11.446272 60.573696 17.170432 94.91968 17.170432 30.52544 0 59.93984-5.723136 88.239104-17.170432 28.29824-11.447296 53.420032-27.188224 75.362304-47.223808 21.938176-20.02944 39.427072-43.242496 52.468736-69.639168 13.03552-26.391552 19.556352-54.85056 19.556352-85.374976l0-140.234752L633.151488 473.669632 633.151488 587.194368c0 40.065024-11.128832 71.069696-33.385472 93.006848-22.260736 21.942272-52.468736 32.91136-90.626048 32.91136-34.345984 0-62.007296-10.969088-82.994176-32.91136-20.990976-21.938176-31.481856-52.941824-31.481856-93.006848L394.663936 473.669632 394.663936 473.669632zM805.820416 416.4352c17.170432 0 31.954944-6.202368 44.357632-18.60096 12.399616-12.403712 18.60096-27.189248 18.60096-44.35968l0-295.727104c0-17.171456-3.017728-33.230848-9.060352-48.17408-6.042624-14.94528-14.3104-27.984896-24.80128-39.113728-10.496-11.128832-22.894592-19.87584-37.206016-26.231808-14.312448-6.361088-30.048256-9.539584-47.218688-9.539584L268.741632-65.311744c-17.171456 0-32.75264 3.178496-46.7456 9.539584-13.98784 6.355968-25.91232 14.785536-35.770368 25.279488-9.858048 10.49088-17.48992 22.734848-22.894592 36.727808-5.405696 13.98784-8.109056 28.937216-8.109056 44.832768l0 302.40768c0 17.170432 6.042624 31.954944 18.126848 44.35968 12.080128 12.397568 26.710016 18.60096 43.880448 18.60096l57.23648 0 120.199168 0 238.487552 0 115.432448 0L805.820416 416.436224 805.820416 416.4352zM805.820416 416.4352"  horiz-adv-x="1024" />

    
    <glyph glyph-name="xinxi" unicode="&#58884;" d="M484.173914 16.69565 1231.49015 16.69565C1255.513182 16.69565 1274.434782 35.971085 1274.434782 59.748531L1274.434782 841.816686C1274.434782 865.92912 1255.207817 884.869565 1231.49015 884.869565L48.50985 884.869565C24.48682 884.869565 5.565217 865.594135 5.565217 841.816686L5.565217 59.748531C5.565217 35.636096 24.792184 16.69565 48.50985 16.69565L261.565217 16.69565 372.869564-116.869564 484.173914 16.69565ZM1024 550.956523 189.217391 550.956523C166.110609 550.956523 147.478261 561.307827 147.478261 584.347827 147.478261 607.454609 166.110609 617.739132 189.217391 617.739132L1024 617.739132C1047.106782 617.739132 1065.739132 607.454609 1065.739132 584.347827 1065.739132 561.307827 1047.106782 550.956523 1024 550.956523ZM1024 417.391305 189.217391 417.391305C166.110609 417.391305 147.478261 427.742609 147.478261 450.782609 147.478261 473.889391 166.110609 484.173914 189.217391 484.173914L1024 484.173914C1047.106782 484.173914 1065.739132 473.889391 1065.739132 450.782609 1065.739132 427.742609 1047.106782 417.391305 1024 417.391305ZM690.086955 283.826086 189.217391 283.826086C166.110609 283.826086 147.478261 294.177391 147.478261 317.217391 147.478261 340.324173 166.110609 350.608695 189.217391 350.608695L690.086955 350.608695C713.193741 350.608695 731.826086 340.324173 731.826086 317.217391 731.826086 294.177391 713.193741 283.826086 690.086955 283.826086Z"  horiz-adv-x="1280" />

    
    <glyph glyph-name="sousuo" unicode="&#58922;" d="M467.078 179.085c-157.322 0-284.859 125.325-284.859 280.133 0 154.818 127.537 280.377 284.859 280.377 157.323 0 284.872-125.558 284.872-280.377 0-154.808-127.549-280.133-284.872-280.133v0zM922.976 34.026l-206.539 203.338c54.051 58.791 87.294 136.317 87.294 221.855 0 183.079-150.703 331.401-336.652 331.401-185.936 0-336.651-148.322-336.651-331.401 0-182.847 150.716-331.157 336.651-331.157 80.335 0 154.026 27.772 211.889 74.033l207.42-204.073c10.111-10.015 26.501-10.015 36.588 0 10.137 9.744 10.137 25.989 0 36.004v0z"  horiz-adv-x="1024" />

    
    <glyph glyph-name="denglu" unicode="&#58963;" d="M869.308849 47.998433c0 162.984025-110.596887 301.388235-260.446777 343.878978 76.729545 36.323277 129.808438 114.445542 129.808438 204.976418 0 125.187187-101.483322 226.670509-226.670509 226.670509S285.329491 722.039993 285.329491 596.853829c0-90.530876 53.079916-168.653141 129.808438-204.976418C265.289062 349.385645 154.693198 210.981435 154.693198 47.998433l0-66.23861 714.616674 0L869.308849 47.998433 869.308849 47.998433z"  horiz-adv-x="1024" />

    
    <glyph glyph-name="zhifubao" unicode="&#58913;" d="M511.001949 894.003899C228.753216 894.003899 0 665.250682 0 383.001949s228.753216-511.001949 511.001949-511.001949 511.001949 228.753216 511.00195 511.001949S793.250682 894.003899 511.001949 894.003899z m291.83002-729.175829c-32.536452 14.17232-173.660819 75.053411-247.316959 110.184795-55.890838-67.867446-114.576218-108.388304-203.003509-108.388304-88.42729 0-147.312281 54.493567-140.325926 120.963743 4.591033 43.71462 34.732164 115.175049 164.877973 102.998831 68.665887-6.387524 100.004678-19.162573 156.095126-37.726316 14.57154 26.548148 26.548148 55.691228 35.730215 86.830409H320.773489v24.552047h122.760234v44.11384h-149.707602v27.146979h149.707602v63.675633s1.397271 9.980507 12.375829 9.980507h61.479922v-73.65614h159.688109v-27.146979h-159.688109v-44.11384h130.345419c-11.976608-48.704873-30.141131-93.617154-52.896686-132.740741 37.925926-13.773099 209.989864-66.270565 209.989863-66.270565l-1.996101-100.403899z m-563.100195 127.351267c-4.990253-24.552047 9.780897-83.636647 103.19844-83.636647 57.487719 0 112.779727 34.931774 157.891618 93.617154-64.074854 31.139181-117.57037 46.509162-177.253801 46.509162-51.898635 0-78.846004-31.937622-83.836257-56.489669z"  horiz-adv-x="1024" />

    
    <glyph glyph-name="daohang" unicode="&#58948;" d="M48.045678 739.932361V811.497914h903.425004c13.540894 0 24.517773-14.309898 24.517773-31.960847v-39.604706c0-17.652957-10.976878-31.960847-24.517773-31.960847H72.563451c-13.540894-0.002008-24.517773 14.30789-24.517773 31.960847zM48.045678-7.694055v71.565553h903.425004c13.540894 0 24.517773-14.309898 24.517773-31.960847v-39.602698c0-17.652957-10.976878-31.960847-24.517773-31.960847H72.563451c-13.540894-0.002008-24.517773 14.30789-24.517773 31.958839zM45.915357 370.286431v71.565553h903.425004c13.540894 0 24.517773-14.309898 24.517772-31.960847v-39.602698c0-17.652957-10.976878-31.960847-24.517772-31.960847H70.433129c-13.540894-0.004016-24.517773 14.305882-24.517772 31.958839z"  horiz-adv-x="1024" />

    
    <glyph glyph-name="kuaijin" unicode="&#58996;" d="M855.2 405.3c-0.4 0.4-0.7 0.8-1.1 1.2L533.3 727.2c-12.5 12.5-32.8 12.5-45.3 0s-12.5-32.8 0-45.3l298.1-298.1-298.4-298.4c-12.5-12.5-12.5-32.8 0-45.3 6.2-6.2 14.4-9.4 22.6-9.4 8.2 0 16.4 3.1 22.6 9.4L854 361.2c1.6 1.6 2.9 3.2 4.1 5 3.5 5.3 5.3 11.5 5.3 17.6 0.1 7.7-2.7 15.4-8.2 21.5zM538.2 366.2c3.5 5.3 5.3 11.5 5.3 17.6 0 7.7-2.7 15.4-8.2 21.4-0.4 0.4-0.7 0.8-1.1 1.2L213.3 727.2c-12.5 12.5-32.8 12.5-45.3 0s-12.5-32.8 0-45.3l298.1-298.1-298.4-298.4c-12.5-12.5-12.5-32.8 0-45.3 6.2-6.2 14.4-9.4 22.6-9.4s16.4 3.1 22.6 9.4L534 361.2c1.7 1.6 3 3.3 4.2 5z"  horiz-adv-x="1024" />

    
    <glyph glyph-name="you" unicode="&#58889;" d="M630.832741 384L207.474308 807.322603 296.187534 896 808.187534 384 296.187534-128.035829 207.474308-39.358432z"  horiz-adv-x="1024" />

    
    <glyph glyph-name="gouwuche" unicode="&#58626;" d="M347.136 112.63999999999999q19.456 0 36.864-7.168t30.72-19.968 20.48-30.208 7.168-36.864-7.168-36.864-20.48-30.208-30.72-20.48-36.864-7.68q-20.48 0-37.376 7.68t-30.208 20.48-20.48 30.208-7.168 36.864 7.168 36.864 20.48 30.208 30.208 19.968 37.376 7.168zM773.12 110.59199999999998q19.456 0 37.376-7.168t30.72-19.968 20.48-30.208 7.68-36.864-7.68-36.864-20.48-30.208-30.72-20.48-37.376-7.68-36.864 7.68-30.208 20.48-20.48 30.208-7.68 36.864 7.68 36.864 20.48 30.208 30.208 19.968 36.864 7.168zM945.152 692.2239999999999q28.672 0 44.544-7.68t22.528-18.944 6.144-24.064-3.584-22.016-12.8-37.888-22.016-62.976-24.064-68.096-17.92-53.248q-13.312-40.96-33.792-56.832t-50.176-15.872l-34.816 0-66.56 0-87.04 0-95.232 0-253.952 0 15.36-92.16 516.096 0q49.152 0 49.152-41.984 0-20.48-9.728-35.328t-38.4-14.848l-49.152 0-95.232 0-117.76 0-119.808 0-98.304 0-56.32 0q-20.48 0-34.304 9.216t-23.04 24.064-14.848 32.256-8.704 32.768q-1.024 6.144-5.632 29.696t-11.264 58.88-14.848 78.848-16.384 87.552q-19.456 103.424-44.032 230.4l-76.8 0q-15.36 0-25.6 7.68t-16.896 18.432-9.216 23.04-2.56 22.528q0 20.48 13.824 33.792t37.376 13.312l22.528 0 20.48 0 25.6 0 34.816 0q20.48 0 32.768-6.144t19.456-15.36 10.24-19.456 5.12-17.408q2.048-8.192 4.096-23.04t4.096-30.208q3.072-18.432 6.144-38.912l700.416 0z"  horiz-adv-x="1024" />

    
    <glyph glyph-name="kuaijin1" unicode="&#58898;" d="M475.542857-65.142857c-9.371429 0-18.742857 3.542857-25.942857 10.742857-14.285714 14.285714-14.285714 37.485714 0 51.885714L836.228571 384 449.6 770.514286c-14.285714 14.285714-14.285714 37.485714 0 51.885714 14.285714 14.285714 37.485714 14.285714 51.885714 0l412.457143-412.457143c14.285714-14.285714 14.285714-37.485714 0-51.885714L501.485714-54.4c-7.2-7.2-16.571429-10.742857-25.942857-10.742857zM169.257143-65.142857c-9.371429 0-18.742857 3.542857-25.942857 10.742857-14.285714 14.285714-14.285714 37.485714 0 51.885714L529.942857 384 143.314286 770.514286c-14.285714 14.285714-14.285714 37.485714 0 51.885714 14.285714 14.285714 37.485714 14.285714 51.885714 0l412.457143-412.457143c14.285714-14.285714 14.285714-37.485714 0-51.885714L195.2-54.4c-7.2-7.2-16.571429-10.742857-25.942857-10.742857z"  horiz-adv-x="1024" />

    
    <glyph glyph-name="mima1" unicode="&#58915;" d="M836.608 444.416h-44.032V610.304c0 153.6-124.92288 278.528-278.52288 278.528C360.448 888.832 235.52 762.88 235.52 610.304v-165.888h-44.032c-29.696 0-54.272-24.576-54.272-54.272V-66.56c0-29.696 24.576-54.272 54.272-54.272h645.12c29.696 0 54.272 24.576 54.272 54.272V390.144c0 29.696-24.576 54.272-54.272 54.272z m-180.224 0H372.736V578.56c0 92.16 63.488 166.912 142.336 166.912 77.824 0 141.31712-75.776 141.31712-166.912v-134.144z"  horiz-adv-x="1024" />

    
    <glyph glyph-name="you1" unicode="&#58960;" d="M663.296 384L256 791.296 301.248 836.544l429.952-429.888 22.592-22.656-452.48-452.544L256-23.296 663.296 384z"  horiz-adv-x="1024" />

    
    <glyph glyph-name="saomadenglu01-copy" unicode="&#58629;" d="M1040.07353231-143.88983905999999L1040.07353231-62.51667254999995 958.70177842-62.51667254999995ZM63.58422391 832.59946797L267.0213814 832.59805536 267.0213814 629.16372446 348.39454789 547.79055796 348.39454789 913.97122186-17.78752997 913.97122186ZM1040.0707071 181.60706748999996L958.69753923 181.60706748999996 958.69895184 262.98023397 673.89145444 262.98023397 673.89145444 222.29223744 755.2632097 140.92048353999996 755.2632097 181.60706748999996 836.6363762 181.60706748999996 836.6363762 100.23390099000005 795.94979227 100.23390099000005 958.69753923-62.513845970000034 958.69753923 18.859320509999975 1040.0707071 18.859320509999975ZM226.33338486 669.85172099L226.33338486 791.91288541 104.27504704 791.91288541ZM429.76912837 913.97122186l81.37175389 0 0-81.3731665-81.37175389 0 0 81.3731665ZM673.89145444 913.97263583L673.89145444 547.79197055l366.18207787 0L1040.07353231 913.97263583 673.89145444 913.97263583zM958.69895184 629.16372446l-203.43291693 0L755.26603491 832.59805536l203.43291693 0L958.69895184 629.16372446zM795.95261884 791.91147143l122.06116305 0 0-122.06116305-122.06116305 0 0 122.06116305ZM714.57803837 303.66823051999995L714.57803837 385.04139839 795.95261884 385.04139839 795.95261884 466.41456489 592.51546135 466.41456489 592.51546135 588.47290271 511.14370747 588.47290271 511.14370747 466.41456489 429.77195357 466.41456489 511.14370747 385.04139839 592.51546135 385.04139839 592.51546135 303.66823051999995ZM511.14370747 669.85172099L592.51546135 669.85172099 592.51546135 832.59946797 511.14370747 832.59946797 511.14370747 751.2248888500001 429.77054098 751.2248888500001 429.77054098 588.47714189 511.14370747 588.47714189ZM958.69895184 466.41597748L877.32578533 466.41597748 877.32578533 385.04139839 795.95403145 385.04139839 795.95403145 303.66823051999995 1040.07353231 303.66823051999995 1040.07353231 385.04139839 958.70177842 385.04139839Z"  horiz-adv-x="1024" />

    
    <glyph glyph-name="taobaowang" unicode="&#58627;" d="M100.243763 614.0791810000001c77.774541-64.468275 86.984704-66.514944 140.19881-117.68023 39.910605-40.93225 34.793882-101.30729 13.303501-174.985318-28.653773-73.678029-18.420326-44.002202-114.615091-247.640064l-138.152141 84.934451c29.677158 24.559309 57.307546 50.142003 82.891264 75.724698 40.93399 41.955533 89.031373 92.097536 102.334874 125.866701 16.373555 31.722496 9.210163 57.30519-6.140109 74.701312-7.163494 9.209754-16.373555 18.419507-29.677158 26.605978l-105.404928 64.468275L100.243763 614.0791810000001zM453.2992 724.596224c248.673894 65.491558 383.755981 49.11872 452.320358 8.18647 41.957274-24.559309 67.541094-57.30519 78.797926-98.23744 6.140109-32.745779 11.256832-69.584794 14.326886-110.517043 5.116723-70.608077 8.186778-170.892186-8.186778-297.782067-8.186778-124.843315-102.334874-163.728998-185.22624-170.892186-49.120768-5.116518-103.358259 1.023283-161.68919 18.419507l14.326886 69.584794 75.727872-17.396224c68.564378-7.163187 99.264819 21.489459 112.568422 53.211955 8.186778 17.396224 12.280218 36.839014 12.280218 60.37504l0 352.017332c3.070054 134.053069-124.84864 147.356058-353.055437 64.468275l52.190822-12.279706c-7.163494-15.349555-21.490381-37.862298-42.980659-67.538227l302.911348 0 0-62.421678-171.922657 0 0-77.771271 171.922657 0 0-61.398372-171.922657 0 0-128.936581c25.583718 11.25632 52.190822 20.466074 73.681101 37.862298l-15.350272 55.258522 79.82121 22.512742 65.494323-162.705715-100.288205-39.908966-15.350272 65.491558c-23.53705-17.396224-59.354214-35.815731-107.451699-55.258522s-111.545037-27.629261-192.389632-25.582694c-41.957274-2.046566-72.657818 7.163187-91.078042 28.652544s-30.700442 45.025485-36.84055 68.56151c-5.116723 28.652544-4.09344 61.398323 3.070054 98.23744l1.023386 2.046566 120.7552 0c0-11.25632-1.023386-25.582694-4.09344-44.002202-2.046669-18.419507 0-33.769062 7.163494-46.048768 15.350272-19.44279 45.027328-19.44279 61.400986-24.559309l6.140095 0 0 148.379399-171.922657 0 0 61.398372 171.922657 0 0 77.771271-41.957315 0c-21.490381-20.466074-39.910605-39.908966-53.214106-53.211955l-22.513664-24.559309-54.237491 48.095437c39.910605 39.908966 74.704486 100.284006 99.264819 144.286208-19.44361-9.209754-34.793882-15.349555-58.330931-23.536026-20.466995-25.582694-40.93399-53.211955-66.517709-74.701312 0-1.023283-18.420326 7.163187-42.980659 20.466074l-41.957274 25.582694c46.050714 39.908966 78.797926 100.284006 102.334874 149.402726 14.326886 29.67593 26.607104 61.398323 36.84055 94.144205l126.895309-34.792448-9.210163-16.372941C471.719526 757.342003 464.556032 744.039014 453.2992 724.596224L453.2992 724.596224zM1654.711091 509.701939l0-80.84119 275.280921 0 0-67.538209-275.280921 0 0-190.334953 374.545789 0 0-79.817883-890.31376 0 0 79.817883 355.102155 0 0 190.334953-246.627145 0 0 67.538209 246.627145 0 0 80.84119-214.903321 0 0-19.442818-140.198834 0 0 248.663406 140.198834 0 0-29.67588c40.93399 5.116518 123.825254 13.302989 214.903296 25.582694l0 69.584821 156.57242 0 0-55.258535c82.891264 8.18647 152.479027 16.372941 192.389632 9.209754 63.447654-3.069952 114.615091-10.233037 152.479027-23.536026 38.887219-13.302989 59.354214-40.93225 62.424269-84.934451 0-41.955533-30.700442-81.864499-62.424269-113.586995-17.396941-17.396224-38.887219-33.769062-62.424269-51.165286l-37.863936 38.885683 0-14.326287L1654.711138 509.702021zM1279.14199 573.146931l563.865382 0 0 3.069919c21.490381 12.279706 37.863936 24.559309 49.120768 37.862298 20.466995 21.489459 23.53705 46.048768-22.513664 69.584794-74.704486 37.862298-470.740582-26.605978-590.472499-55.258522L1279.141977 573.146894zM3077.16649 614.0791810000001c5.116723-99.260723 3.070054-209.777766 0-309.03849-2.046669-95.167488 10.233446-277.315994-149.408973-246.616781-48.097382 4.093235-84.937933 19.44279-110.521754 31.722496-15.350272 6.139802-28.653773 12.279706-38.887219 19.44279l6.140109 66.514944c23.53705-13.302989 45.027328-21.489459 64.47104-24.559309 31.723827-7.163187 67.541094 7.163187 72.657818 72.654746 5.116723 83.911066 5.116723 257.873203 5.116723 357.133824-17.396941-21.489459-52.190822-75.724698-94.148096-132.006502 39.910605-32.745779 72.657818-59.351757 85.961318-82.887782l-111.545037-93.120819-14.326886 22.512742c-12.280218 13.302989-24.560333 33.769062-40.93399 58.328474-57.307546-64.468275-130.988646-122.796749-204.66985-162.705715l-49.120768 68.56151c19.44361 10.233037 40.93399 23.536026 64.47104 38.885683 35.817267 27.629261 84.937933 65.491558 126.895309 130.983219-21.490381 32.745779-54.237491 60.37504-81.867981 83.911066-15.350272-13.302989-28.653773-32.745779-44.004045-49.11872 24.560333-24.559309 44.004045-45.025485 55.260877-68.56151l-85.961318-84.934451-15.350272 20.466074-33.770496 52.18857c-32.747213-25.582694-56.28416-49.11872-76.751155-65.491558-11.256832-10.233037-22.513664-19.44279-32.747213-26.605978l-39.910605 39.908966 0-240.476957-156.57242 0 0 673.335479 156.57242 0 0-59.35176c74.704486 26.605978 301.888 114.610278 489.160909 98.23744C3045.442662 775.76151 3070.002995 664.221184 3077.16649 614.0791810000001L3077.16649 614.0791810000001zM2926.734131 605.8927100000001c0 20.466074-5.116723 32.745779-5.116723 41.955533 0 13.302989-2.046669 32.745779-7.163494 46.048768-13.303501 23.536026-44.004045 51.165286-117.685146 50.142003-125.871923-9.209754-327.471718-66.514944-462.553805-128.93655l0-253.779937c39.910605 24.559309 67.541094 54.235238 95.171482 94.144205-27.630387 39.908966-55.260877 74.701312-84.937933 90.05097l42.980659 55.258522c10.233446-6.139802 20.466995-12.279706 29.677158-19.44279 16.373555-15.349555 40.93399-30.699213 66.517709-48.095437 19.44361 35.815731 36.84055 71.631462 46.050714 97.214054l17.396941 42.978816 119.731814-59.351757c-5.116723-13.302989-12.280218-25.582694-17.396941-40.93225 19.44361-15.349555 53.214106-33.769062 89.031373-59.351757 26.607104 50.142003 46.050714 106.423808 59.354214 169.8688L2926.734131 605.8927100000001zM174.94825 643.755008c-48.097382 0-90.054758 36.839014-90.054758 80.841216 0 48.095437 41.957274 79.817933 90.054758 79.817933 52.190822 0 89.031373-31.722496 89.031373-79.817933C263.979622 680.594022 227.139072 643.755008 174.94825 643.755008L174.94825 643.755008zM1825.610445 188.38374399999998c-50.144154 0-90.054758 35.815731-90.054758 77.771264 0 49.11872 39.910605 80.841216 90.054758 80.841216 49.120768 0 89.031373-31.722496 89.031373-80.841216C1914.641818 224.199475 1874.731213 188.38374399999998 1825.610445 188.38374399999998z"  horiz-adv-x="3082" />

    
    <glyph glyph-name="you2" unicode="&#58625;" d="M294.4-12.799999999999955L684.8 384 294.4 780.8c-25.6 25.6-25.6 70.4 0 96 25.6 25.6 70.4 25.6 96 0L832 435.2c12.8-12.8 19.2-32 19.2-51.2S844.8 352 832 332.79999999999995l-441.6-441.6c-25.6-25.6-70.4-25.6-96 0C262.4-83.20000000000005 262.4-38.39999999999998 294.4-12.799999999999955z"  horiz-adv-x="1024" />

    
    <glyph glyph-name="wode" unicode="&#58970;" d="M243.712 230.912c-55.808 56.32-86.528 131.072-86.528 210.432s30.72 154.112 86.528 210.432c55.808 56.32 130.048 87.04 208.896 87.04 78.848 0 153.088-30.72 208.896-87.04 55.808-56.32 86.528-131.072 86.528-210.432s-30.72-154.112-86.528-210.432c-55.808-56.32-130.048-87.04-208.896-87.04-78.848-0.512-153.088 30.72-208.896 87.04M948.224 15.36L762.88 202.24c50.176 66.048 80.384 148.992 80.384 239.104 0 217.088-175.104 393.216-390.656 393.216-215.552 0-390.656-176.128-390.656-393.216s175.104-393.216 390.656-393.216c92.16 0 177.152 32.256 243.712 86.016l184.832-185.856c9.216-9.216 21.504-13.824 33.792-13.824 12.288 0 24.576 4.608 33.792 13.824 17.92 18.432 17.92 48.64-0.512 67.072"  horiz-adv-x="1024" />

    
    <glyph glyph-name="right" unicode="&#58628;" d="M367.851 82.62699999999995L499.47 214.24400000000003l124.643 124.645 28.501 28.5-46.952 46.953L474.043 545.96 349.4 670.6030000000001l-42.645 42.644c-7.705 7.705-7.705 20.579 0 28.284 7.707 7.706 20.58 7.706 28.285 0l61.096-61.095c43.871-43.873 87.744-87.745 131.617-131.618l124.644-124.643 42.644-42.644c7.705-7.705 7.705-20.578 0-28.285-20.365-20.363-40.729-40.729-61.095-61.094L502.328 160.53300000000002c-41.549-41.547-83.096-83.096-124.643-124.643l-42.645-42.645c-7.705-7.705-20.578-7.705-28.285 0-7.705 7.707-7.705 20.58 0 28.285l61.096 61.097z"  horiz-adv-x="1024" />

    
    <glyph glyph-name="xiala" unicode="&#58991;" d="M772.92959 137.520506c-13.546965-13.546965-31.910628-26.190798-49.37116-22.277231-17.460532-2.859915-33.867411 10.68705-47.414376 22.277231l-419.504336 421.46112c-21.3741 21.3741-21.3741 56.144642 0 77.518741 21.3741 21.3741 56.144642 21.3741 77.518742 0l390.303101-400.990151 391.356754 400.990151c21.3741 21.3741 56.144642 21.3741 77.518742 0 21.3741-21.3741 21.3741-56.144642 0-77.518741l-420.407467-421.46112z m0 0"  horiz-adv-x="1450" />

    
    <glyph glyph-name="xiala1" unicode="&#58891;" d="M1010.785181-82.663255c-25.747571-25.742172-60.693146-49.643304-93.79768-42.28994-33.104534-5.514123-64.371627 20.22625-90.119199 42.28994L30.504042 717.136534c-40.461497 40.450699-40.461497 106.641772 0 147.090672 40.461497 40.450699 106.672366 40.450699 147.133863 0L918.826742 103.038875 1661.854819 864.227206c40.461497 40.450699 106.672366 40.450699 147.133863 0 40.461497-40.4489 40.461497-106.639972 0-147.088872L1010.785181-82.663255z"  horiz-adv-x="1841" />

    
    <glyph glyph-name="xiala2" unicode="&#58640;" d="M937.813333-37.54666699999996c-23.893333-24.576-56.32-47.445333-87.04-40.448-30.72-5.12-59.733333 19.285333-83.626666 40.448L28.16 726.528a101.717333 101.717333 0 0 0 0 140.458667 94.890667 94.890667 0 0 0 136.533333 0l687.786667-727.04L1541.973333 866.986667a94.890667 94.890667 0 0 0 136.533334 0c37.546667-38.570667 37.546667-101.888 0-140.458667L937.813333-37.54666699999996z"  horiz-adv-x="1706" />

    
    <glyph glyph-name="xiala3-copy-copy-copy" unicode="&#59048;" d="M451.47303655 642.70395664c13.66737884 13.66737884 32.21596439 26.35851634 49.78830863 22.45355098 17.57234421 2.92872403 34.1684471-10.73865482 47.83582596-22.45355095L971.8096739 218.03897118999998c21.4773096-21.4773096 21.4773096-56.62199807 0-78.09930763s-56.62199807-21.4773096-78.09930767 0l-393.4252624 404.16391718L105.88360012 139.93966355999999c-21.4773096-21.4773096-56.62199807-21.4773096-78.09930765 0s-21.4773096 56.62199807 0 78.09930763L451.47303655 642.70395664z"  horiz-adv-x="1024" />

    
    <glyph glyph-name="zuo" unicode="&#58958;" d="M782.862564 773.006019L394.059716 384.203171l388.802848-388.072015a72.571659 72.571659 0 0 0-102.316539-103.047371L291.743177 281.886632l-51.158269 51.15827a71.91391 71.91391 0 0 0 0 102.316539l51.158269 51.889102L680.546025 875.322558a72.35241 72.35241 0 0 0 102.316539-102.316539z"  horiz-adv-x="1024" />

    
    <glyph glyph-name="daohang1" unicode="&#58961;" d="M1279.991322 793.603471h-1228.758347a51.198264 51.198264 0 0 0 0 102.396529h1228.758347a51.198264 51.198264 0 1 0 0-102.396529zM1279.991322 332.801736h-1228.758347a51.198264 51.198264 0 1 0 0 102.396528h1228.758347a51.198264 51.198264 0 0 0 0-102.396528zM1279.991322-128h-1228.758347a51.198264 51.198264 0 1 0 0 102.396529h1228.758347a51.198264 51.198264 0 0 0 0-102.396529z"  horiz-adv-x="1331" />

    
    <glyph glyph-name="zhanghaodenglu" unicode="&#59060;" d="M895.69792-58.19392h87.3216v63.232H831.6416l64.05632-63.232zM0 826.19392v-0.06656l41.43616-40.9088v0.128h941.58336v-676.6848l-256.47616 0.128 41.04704-40.51968H1024V826.19392H0z m917.6576-105.3696H106.73152v-0.06144l554.44992-547.44064 256.47104-0.128V720.82432z"  horiz-adv-x="1024" />

    
    <glyph glyph-name="zuo1" unicode="&#58959;" d="M222.603636 384l516.654546-512 62.138182 61.44L346.647273 384 801.396364 834.56 739.258182 896 222.603636 384z"  horiz-adv-x="1024" />

    
    <glyph glyph-name="taobaowang1" unicode="&#58630;" d="M1259.889597-64.95116800000005v73.919321c0 60.874735-29.350318 88.050955-106.530786 88.050955-31.524416 0-50.004246-2.174098-57.613588-8.69639-6.522293-4.348195-10.870488-14.131635-18.47983-28.26327 20.653928 5.435244 41.307856 8.696391 61.961783 8.696391 43.481953 0 61.961783-15.218684 61.961784-50.004247 0-3.261146 0-7.609342-1.087049-11.957537-11.957537 15.218684-33.698514 25.002123-56.526539 25.002123-51.091295 0-85.876858-30.437367-85.876858-78.267516s32.611465-79.354565 79.354565-79.354564c27.176221 0 50.004246 9.783439 65.222929 28.263269 0 0 3.261146-13.044586 17.392782-20.653928h1.087049s1.087049 0 1.087048-1.087048c1.087049-1.087049 2.174098-1.087049 3.261147-1.087049h1.087049c1.087049 0 2.174098 0 2.174097-1.087049 4.348195-1.087049 8.696391-1.087049 13.044586-1.087049 40.220807 0 41.307856 32.611465 41.307856 32.611465-21.740977-1.087049-22.828025 6.522293-22.828025 25.002123z m-98.921444-28.263269c-22.828025 0-40.220807 18.47983-40.220807 46.743099 0 29.350318 16.305732 46.7431 41.307856 46.7431 22.828025 0 39.133758-16.305732 39.133758-45.656051 0-30.437367-16.305732-47.830149-40.220807-47.830148zM645.707006 97.01910799999996c-67.397028 0-108.704883-41.307856-108.704883-111.966029 0-70.658174 41.307856-111.96603 108.704883-111.96603s108.704883 41.307856 108.704884 111.96603c0 70.658174-41.307856 111.96603-108.704884 111.966029z m0-191.320594c-28.26327 0-42.394904 26.089172-42.394904 79.354565s13.044586 79.354565 42.394904 79.354564c28.26327 0 42.394904-26.089172 42.394905-79.354564s-14.131635-79.354565-42.394905-79.354565zM923.991507 94.845011c-27.176221 0-46.7431-7.609342-60.874734-23.915075V137.239915v3.261147 1.087048 1.087049c-1.087049 4.348195-2.174098 8.696391-4.348196 11.957537l-1.087048 1.087049V156.80679399999997c0 1.087049-1.087049 2.174098-2.174098 2.174098 0 1.087049-1.087049 1.087049-2.174098 2.174097l-1.087048 1.087049-1.087049 1.087049c-3.261146 3.261146-6.522293 5.435244-10.870489 6.522293-6.522293 2.174098-14.131635 4.348195-23.915074 4.348195-25.002123 0-34.785563-15.218684-34.785563-15.218683-4.348195-5.435244-6.522293-10.870488-7.609341-17.392782 21.740977-1.087049 26.089172-8.696391 26.089172-30.437367v-177.18896c0-13.044586 1.087049-27.176221-22.828026-26.089172 0 0 0-1.087049 1.087049-3.261146 2.174098-7.609342 8.696391-25.002123 29.350318-27.176221 3.261146-1.087049 6.522293-1.087049 10.870489-1.087049 33.698514 0 40.220807 26.089172 40.220806 26.089172 15.218684-18.47983 38.046709-29.350318 64.135882-29.350318 56.526539 0 96.747346 42.394904 96.747346 114.140127 1.087049 68.484076-35.872611 107.617834-95.660298 107.617835z m-15.218683-186.9724c-27.176221 0-46.7431 23.915074-46.7431 68.484077v21.740977c0 43.481953 18.47983 67.397028 45.656051 67.397027 30.437367 0 46.7431-28.26327 46.7431-82.615711-1.087049-50.004246-17.392781-75.006369-45.656051-75.00637zM1415.33758 97.01910799999996c-67.397028 0-108.704883-41.307856-108.704884-111.966029 0-70.658174 41.307856-111.96603 108.704884-111.96603s108.704883 41.307856 108.704883 111.96603c0 70.658174-42.394904 111.96603-108.704883 111.966029z m0-191.320594c-28.26327 0-42.394904 26.089172-42.394905 79.354565s13.044586 79.354565 42.394905 79.354564c28.26327 0 42.394904-26.089172 42.394904-79.354564s-14.131635-79.354565-42.394904-79.354565zM1765.367304 67.66878999999994c14.131635 0 25.002123-4.348195 33.698513-16.305733 4.348195-5.435244 10.870488-9.783439 18.479831-10.870488 15.218684-2.174098 28.26327 8.696391 28.263269 33.698514 0 0-35.872611 21.740977-81.528662 21.740976-68.484076 0-117.401274-43.481953-117.401274-113.053078 0-67.397028 46.7431-110.878981 114.140127-110.878981 33.698514 0 63.048832 11.957537 83.70276 33.698514-7.609342 7.609342-14.131635 10.870488-22.828025 10.870488-11.957537 0-28.26327-10.870488-48.917198-10.870488-34.785563 0-58.700637 30.437367-58.700637 83.70276-1.087049 51.091295 21.740977 78.267516 51.091296 78.267516zM1984.951168 97.01910799999996c-67.397028 0-108.704883-41.307856-108.704883-111.966029 0-70.658174 41.307856-111.96603 108.704883-111.96603s108.704883 41.307856 108.704883 111.96603c0 70.658174-41.307856 111.96603-108.704883 111.966029z m0-191.320594c-28.26327 0-42.394904 26.089172-42.394905 79.354565s13.044586 79.354565 42.394905 79.354564c28.26327 0 42.394904-26.089172 42.394904-79.354564s-14.131635-79.354565-42.394904-79.354565zM1587.091295-64.95116800000005c-17.392781 0-30.437367-14.131635-30.437367-30.437367 0-17.392781 14.131635-30.437367 30.437367-30.437367s30.437367 14.131635 30.437367 30.437367c1.087049 16.305732-13.044586 30.437367-30.437367 30.437367zM321.766454 151.37154999999996c-17.392781-4.348195-48.917197-5.435244-95.660297-5.435244-56.526539 0-94.573248 2.174098-114.140127 2.174097-31.524416 0-44.569002-8.696391-55.439491-40.220806 18.47983 6.522293 41.307856 6.522293 69.571126 6.522293 21.740977 0 25.002123-2.174098 25.002123-18.479831V-82.34394899999995c0-17.392781 7.609342-30.437367 21.740976-36.95966 2.174098-1.087049 5.435244-2.174098 8.696391-3.261147 4.348195-1.087049 8.696391-1.087049 14.131635-1.087049 43.481953 0 51.091295 32.611465 51.091295 32.611465-21.740977 0-26.089172 7.609342-26.089172 29.350319V95.93205899999998c0 16.305732 6.522293 17.392781 28.26327 17.392782h16.305732c33.698514-1.087049 43.481953 5.435244 56.526539 38.046709zM2466.5138-63.86411899999996v82.615711c0 53.265393-22.828025 78.267516-75.006369 78.267516-27.176221 0-50.004246-9.783439-65.22293-29.350318-13.044586 19.566879-33.698514 29.350318-63.048832 29.350318-27.176221 0-47.830149-8.696391-63.048832-25.002123 0 0-4.348195 21.740977-41.307856 21.740977-10.870488 0-18.47983-2.174098-23.915074-5.435244-7.609342-4.348195-10.870488-9.783439-10.870489-9.78344-3.261146-4.348195-5.435244-10.870488-6.522293-16.305732 21.740977-1.087049 26.089172-8.696391 26.089172-29.350319v-154.360934h59.787686V16.577495c0 33.698514 10.870488 50.004246 38.046709 50.004246 22.828025 0 32.611465-13.044586 32.611465-41.307856v-147.838641h59.787686V16.577495c0 33.698514 10.870488 50.004246 38.046709 50.004246 22.828025 0 32.611465-13.044586 32.611465-41.307856v-104.356688s0-4.348195 1.087049-10.870488v-1.087049c0-1.087049 0-2.174098 1.087049-2.174097 0-1.087049 0-1.087049 1.087048-2.174098v-1.087049c0-1.087049 0-1.087049 1.087049-2.174098v-1.087048c0-1.087049 1.087049-1.087049 1.087049-2.174098 0 0 0-1.087049 1.087049-1.087049 1.087049-2.174098 2.174098-4.348195 4.348195-6.522293l1.087049-1.087049 1.087049-1.087049 1.087049-1.087048 1.087049-1.087049s1.087049-1.087049 2.174097-1.087049l1.087049-1.087049c1.087049 0 1.087049-1.087049 2.174098-1.087049 0 0 1.087049 0 1.087049-1.087049 5.435244-3.261146 13.044586-4.348195 21.740976-4.348195 40.220807 0 41.307856 32.611465 41.307856 32.611465-21.740977-1.087049-22.828025 7.609342-22.828026 26.089172zM490.259023-64.95116800000005v73.919321c0 60.874735-29.350318 88.050955-106.530785 88.050955-31.524416 0-50.004246-2.174098-57.613588-8.69639-6.522293-4.348195-10.870488-14.131635-18.47983-28.26327 20.653928 5.435244 41.307856 8.696391 61.961783 8.696391 43.481953 0 61.961783-15.218684 61.961783-50.004247 0-3.261146 0-7.609342-1.087048-11.957537-11.957537 15.218684-33.698514 25.002123-56.52654 25.002123-51.091295 0-85.876858-30.437367-85.876857-78.267516s32.611465-79.354565 79.354564-79.354564c27.176221 0 50.004246 9.783439 65.22293 28.263269 0 0 3.261146-13.044586 17.392782-20.653928h1.087048s1.087049 0 1.087049-1.087048c1.087049-1.087049 2.174098-1.087049 3.261147-1.087049h1.087049c1.087049 0 2.174098 0 2.174097-1.087049 4.348195-1.087049 8.696391-1.087049 13.044586-1.087049 40.220807 0 41.307856 32.611465 41.307856 32.611465-20.653928-1.087049-22.828025 6.522293-22.828026 25.002123z m-97.834395-28.263269c-22.828025 0-40.220807 18.47983-40.220806 46.743099 0 29.350318 16.305732 46.7431 41.307855 46.7431 22.828025 0 39.133758-16.305732 39.133758-45.656051-1.087049-30.437367-17.392781-47.830149-40.220807-47.830148zM79.354565 729.681529l-45.656051-69.571126 83.70276-52.178344s55.43949-28.26327 29.350318-82.615711C121.749469 474.225053 0 363.34607200000005 0 363.34607200000005l109.791932-68.484076c76.093418 164.144374 70.658174 142.403397 90.225053 201.104034 19.566879 59.787686 23.915074 106.530786-9.783439 139.14225-42.394904 43.481953-47.830149 46.7431-110.878981 94.573249zM360.900212 817.732484c17.392781 30.437367 26.089172 50.004246 26.089172 50.004246L285.893843 896s-41.307856-132.619958-113.053079-194.581741c0 0 70.658174-40.220807 69.571126-39.133758 20.653928 20.653928 38.046709 40.220807 54.352441 60.874735 16.305732 6.522293 31.524416 14.131635 46.7431 19.566879-18.47983-33.698514-48.917197-83.70276-79.354565-116.314225l42.394905-36.959661s29.350318 28.26327 60.874734 61.961784h35.872612v-61.961784h-141.316348v-50.004246h141.316348v-118.488323h-5.435244c-15.218684 1.087049-40.220807 3.261146-48.917198 18.47983-11.957537 18.47983-3.261146 52.178344-2.174098 71.745223H250.021231l-3.261146-2.174097S210.887473 349.214437 350.029724 352.475584c129.358811-3.261146 203.278132 35.872611 239.150743 63.048832l14.131635-53.265393 79.354565 32.611465-54.352442 132.619958-65.22293-20.653928 11.957537-45.656051c-16.305732-11.957537-35.872611-21.740977-56.526539-28.26327V537.2738850000001h138.055202v50.004247H518.522293v61.961783h138.055202V700.33121H410.904459c17.392781 21.740977 31.524416 41.307856 34.785562 53.265393L403.295117 765.55414C587.006369 830.77707 689.18896 819.906582 688.101911 712.2887470000001V428.569002s10.870488-97.834395-101.095542-90.225053l-59.787685 13.044586-14.131635-57.613588s260.89172-75.006369 281.545647 126.097664c21.740977 200.016985-5.435244 328.288747-5.435244 328.288748s-22.828025 184.798301-428.29724 69.571125zM1521.868365 644.89172v13.044586l31.524416-30.437368s101.095541 63.048832 97.834395 131.532909c-2.174098 68.484076-68.484076 82.615711-171.753715 88.050956-31.524416 1.087049-88.050955-2.174098-152.186837-7.609342V884.042463h-127.184713v-56.526539c-72.832272-7.609342-139.142251-16.305732-173.927813-20.653928V830.77707H913.121019v-200.016985h113.053079v14.131635h172.840764V580.7558389999999H1000.084926v-53.265393h198.929936V374.21656099999996H913.121019v-66.309979h717.452229V374.21656099999996h-302.199575V528.577495h222.845011V580.7558389999999h-222.845011v64.135881H1521.868365z m-495.694267 97.834395c95.660297 21.740977 417.426752 72.832272 477.214437 43.481953 70.658174-35.872611-23.915074-88.050955-23.915074-88.050955l1.087049-1.087049H1026.174098v45.656051zM2471.949045 729.681529c-2.174098 40.220807-23.915074 133.707006-204.365181 151.099787-150.012739 14.131635-333.723992-53.265393-392.424628-77.180467V851.430998H1750.14862v-540.26327h126.097665V502.488323l32.611464-31.524416s40.220807 32.611465 86.963907 76.093418c22.828025-33.698514 39.133758-60.874735 39.133758-60.874735l69.571125 69.571125c-8.696391 17.392781-25.002123 35.872611-43.481953 55.439491 13.044586 13.044586 25.002123 27.176221 35.872611 40.220807 21.740977-17.392781 45.656051-42.394904 67.397028-67.397028-71.745223-101.095541-155.447983-136.968153-155.447983-136.968153l40.220807-54.352441c59.787686 31.524416 116.314225 80.441614 163.057325 131.532908 27.176221-36.95966 46.7431-66.309979 46.743099-66.309978l89.138005 75.006369c-9.783439 17.392781-38.046709 41.307856-70.658174 67.397028 35.872611 46.7431 63.048832 86.963907 75.006369 107.617834 2.174098-78.267516 3.261146-220.670913-2.174098-288.067941-7.609342-102.18259-109.791932-36.95966-109.791932-36.95966l-5.435244-54.352441s45.656051-29.350318 120.662421-42.394905c128.271762-21.740977 117.401274 122.836518 119.575371 200.016985 0 73.919321 2.174098 164.144374-3.261146 243.498939z m-222.845011 56.526539c-10.870488-53.265393-27.176221-98.921444-46.7431-136.968153-29.350318 19.566879-56.526539 36.95966-72.832272 47.830149 6.522293 11.957537 11.957537 22.828025 13.044586 32.611465l-93.486199 46.743099s-19.566879-52.178344-53.265393-110.87898c-40.220807 30.437367-76.093418 53.265393-76.093418 53.265392l-34.785563-44.569002c20.653928-11.957537 46.7431-40.220807 70.658174-70.658174-22.828025-30.437367-50.004246-57.613588-78.267516-75.006369V731.855626c106.530786 50.004246 270.675159 95.660297 371.770701 102.182591 58.700637 3.261146 84.789809-18.47983 94.573248-39.133758 5.435244-10.870488 6.522293-28.26327 6.522293-36.959661 0-7.609342 1.087049-19.566879 1.087049-32.611465l-102.18259 60.874735zM139.142251 755.770701c40.220807 0 71.745223 29.350318 71.745222 64.135881 0 35.872611-32.611465 64.135881-71.745222 64.135881C98.921444 885.129512 67.397028 855.779193 67.397028 819.906582c0-35.872611 31.524416-64.135881 71.745223-64.135881zM1393.596603 452.484076c2.174098 17.392781 18.47983 30.437367 38.046709 28.26327 19.566879-1.087049 33.698514-17.392781 31.524416-33.698514-2.174098-17.392781-18.47983-30.437367-38.046709-28.263269-17.392781 1.087049-30.437367 13.044586-31.524416 28.263269v5.435244z"  horiz-adv-x="2491" />

    
    <glyph glyph-name="daohang2" unicode="&#59004;" d="M120 651.8h784v-84H120zM120 426h784v-84H120zM120 200.2h784v-84H120z"  horiz-adv-x="1024" />

    
    <glyph glyph-name="shoucang" unicode="&#58949;" d="M752-43.2c-9.6 0-20.8 3.2-30.4 8l-208 104-209.6-104c-20.8-11.2-48-9.6-67.2 4.8-19.2 14.4-30.4 40-25.6 64l43.2 224L89.6 411.2C72 428.8 65.6 456 72 478.4c8 24 27.2 41.6 52.8 44.8l228.8 41.6 102.4 208c11.2 22.4 33.6 36.8 57.6 36.8s48-14.4 57.6-36.8l102.4-208 228.8-40c24-3.2 44.8-20.8 51.2-44.8 8-24 1.6-49.6-16-67.2L772.8 257.6l41.6-224c4.8-25.6-6.4-49.6-25.6-64-9.6-8-22.4-12.8-36.8-12.8z"  horiz-adv-x="1024" />

    
    <glyph glyph-name="weibo" unicode="&#58892;" d="M512 384m-512 0a512 512 0 1 1 1024 0 512 512 0 1 1-1024 0ZM429.034667 352.874667c-51.754667-7.146667-88.96-47.210667-83.114667-89.429334 5.845333-42.24 52.522667-70.677333 104.277333-63.509333 51.733333 7.146667 88.96 47.189333 83.114667 89.450667-5.824 42.24-52.522667 70.656-104.277333 63.488z m-15.104-119.296c-18.197333-2.517333-34.581333 7.466667-36.650667 22.336-2.048 14.805333 11.029333 28.885333 29.226667 31.424 18.176 2.496 34.581333-7.466667 36.650666-22.336 2.048-14.848-11.050667-28.906667-29.226666-31.424z m46.4 47.786666c-7.637333-1.962667-15.104 1.536-16.661334 7.765334-1.578667 6.229333 3.328 12.842667 10.965334 14.762666 7.616 1.92 15.082667-1.536 16.64-7.786666 1.621333-6.229333-3.349333-12.864-10.944-14.762667z m237.376 141.525334a21.205333 21.205333 0 0 1 27.882666 11.306666 75.882667 75.882667 0 0 1-99.349333 99.370667 21.290667 21.290667 0 0 1 16.597333-39.210667 33.28 33.28 0 0 0 43.562667-43.562666 21.269333 21.269333 0 0 1 11.306667-27.904z m-49.557334-31.36l4.181334 11.904c37.248 71.509333-58.816 94.805333-113.898667 64.426666-55.04-30.421333-28.48 21.056-28.48 21.056 9.109333 94.016-89.728 52.416-89.728 52.416-229.546667-128.725333-206.229333-256.298667-206.229333-256.298666 0-70.186667 110.08-148.586667 248.853333-148.586667 183.893333 0 288.746667 107.498667 270.506667 187.392-7.36 32.256-45.653333 59.882667-85.205334 67.669333z m-212.629333-218.581334c-120.405333 0-161.130667 62.634667-161.130667 107.904 0 71.701333 94.997333 124.672 184.448 124.672 89.429333 0 153.173333-37.994667 167.786667-87.829333 21.610667-73.749333-72.661333-144.746667-191.104-144.746667zM655.765333 618.666667c-13.141333 0-26.218667-1.664-38.826666-4.928a21.290667 21.290667 0 0 1 10.624-41.216 112.490667 112.490667 0 0 0 133.76-147.370667 21.269333 21.269333 0 1 1 39.978666-14.592c6.186667 17.002667 9.365333 34.901333 9.365334 53.205333C810.666667 549.162667 741.162667 618.666667 655.765333 618.666667z"  horiz-adv-x="1024" />

    
    <glyph glyph-name="bottom" unicode="&#59051;" d="M561.873 170.83500000000004c-11.262-11.262-26.545-21.72-41.025-18.502-14.479-2.413-28.154 8.849-39.415 18.502L133.129 520.748c-17.697 17.696-17.697 46.655 0 64.352s46.65500001 17.696 64.351 0l324.173-333.021 324.977 333.02c17.696 17.697 46.655 17.697 64.35099999 0s17.697-46.655 1e-8-64.351L561.873 170.83500000000004z"  horiz-adv-x="1024" />

    
    <glyph glyph-name="xiala3" unicode="&#58905;" d="M561.873 170.835c-11.262-11.262-26.545-21.72-41.025-18.502-14.479-2.413-28.154 8.849-39.415 18.502L133.129 520.748c-17.697 17.696-17.697 46.655 0 64.352s46.655 17.696 64.351 0l324.173-333.021 324.977 333.02c17.696 17.697 46.655 17.697 64.351 0s17.697-46.655 0-64.351L561.873 170.835z"  horiz-adv-x="1024" />

    
    <glyph glyph-name="kuaijin2" unicode="&#58932;" d="M499.7504-30.0416l383.517867 383.5392a42.496 42.496 0 0 1 12.484266 30.353067 42.478933 42.478933 0 0 1-12.484266 30.3104l-383.517867 383.889066c-16.657067 16.6528-43.677867 16.661333-60.343467 0-16.6656-16.661333-16.661333-43.677867 0-60.347733l353.5232-353.8688-353.5232-353.540267c-16.657067-16.657067-16.661333-43.6736 0-60.343466 16.661333-16.661333 43.6864-16.6528 60.343467 0.008533zM201.083733-30.0416l383.517867 383.5392a42.496 42.496 0 0 1 12.484267 30.353067 42.478933 42.478933 0 0 1-12.484267 30.3104L201.083733 798.050133c-16.657067 16.6528-43.677867 16.661333-60.343466 0-16.6656-16.661333-16.661333-43.677867 0-60.347733l353.5232-353.8688L140.740267 30.293333c-16.657067-16.657067-16.661333-43.6736 0-60.343466 16.661333-16.661333 43.6864-16.6528 60.343466 0.008533z"  horiz-adv-x="1024" />

    
    <glyph glyph-name="gouwuche1" unicode="&#58631;" d="M347.136 112.63999999999999q19.456 0 36.864-7.168t30.72-19.968 20.48-30.208 7.168-36.864-7.168-36.864-20.48-30.208-30.72-20.48-36.864-7.68q-20.48 0-37.376 7.68t-30.208 20.48-20.48 30.208-7.168 36.864 7.168 36.864 20.48 30.208 30.208 19.968 37.376 7.168zM773.12 110.59199999999998q19.456 0 37.376-7.168t30.72-19.968 20.48-30.208 7.68-36.864-7.68-36.864-20.48-30.208-30.72-20.48-37.376-7.68-36.864 7.68-30.208 20.48-20.48 30.208-7.68 36.864 7.68 36.864 20.48 30.208 30.208 19.968 36.864 7.168zM945.152 692.2239999999999q28.672 0 44.544-7.68t22.528-18.944 6.144-24.064-3.584-22.016-12.8-37.888-22.016-62.976-24.064-68.096-17.92-53.248q-13.312-40.96-33.792-56.832t-50.176-15.872l-34.816 0-66.56 0-87.04 0-95.232 0-253.952 0 15.36-92.16 516.096 0q49.152 0 49.152-41.984 0-20.48-9.728-35.328t-38.4-14.848l-49.152 0-95.232 0-117.76 0-119.808 0-98.304 0-56.32 0q-20.48 0-34.304 9.216t-23.04 24.064-14.848 32.256-8.704 32.768q-1.024 6.144-5.632 29.696t-11.264 58.88-14.848 78.848-16.384 87.552q-19.456 103.424-44.032 230.4l-76.8 0q-15.36 0-25.6 7.68t-16.896 18.432-9.216 23.04-2.56 22.528q0 20.48 13.824 33.792t37.376 13.312l22.528 0 20.48 0 25.6 0 34.816 0q20.48 0 32.768-6.144t19.456-15.36 10.24-19.456 5.12-17.408q2.048-8.192 4.096-23.04t4.096-30.208q3.072-18.432 6.144-38.912l700.416 0z"  horiz-adv-x="1024" />

    
    <glyph glyph-name="xinxi1" unicode="&#58887;" d="M823.135 789.484h-627.57c-71.734 0-130.09-63.598-130.09-141.772v-402.31c0-78.171 58.357-141.77 130.09-141.77h20.697v-105.76c0-31.729 23.612-57.548 52.63-57.548 10.321 0 20.582 3.504 29.437 9.966l216.755 153.341H823.14c71.732 0 130.091 63.599 130.091 141.77v402.31c-0.005 78.175-58.362 141.773-130.095 141.773zM332.591 488.718c21.367 0 38.688-18.878 38.688-42.163 0-23.284-17.321-42.163-38.688-42.163-21.363 0-38.69 18.878-38.69 42.163 0 23.285 17.327 42.163 38.69 42.163z m176.76-84.326c-21.366 0-38.688 18.878-38.688 42.163 0 23.285 17.322 42.163 38.689 42.163 21.365 0 38.683-18.878 38.683-42.163 0-23.285-17.318-42.163-38.683-42.163z m176.758 0c-21.366 0-38.689 18.878-38.689 42.163 0 23.285 17.323 42.163 38.69 42.163 21.365 0 38.688-18.878 38.688-42.163 0-23.285-17.323-42.163-38.689-42.163z m0 0"  horiz-adv-x="1024" />

    
    <glyph glyph-name="bianzu" unicode="&#58972;" d="M267.850152 347.602097l421.259476-421.245352c20.246952-20.254014 51.270621-22.08309 69.278896-4.074814 18.001214 18.008276 16.172138 49.010759-4.074814 69.278897L361.577931 384.268359l396.810593 396.789407a46.11531 46.11531 0 0 1-65.211145 65.19702L263.775338 416.873931a46.101186 46.101186 0 0 1 1.998565-67.082593c0.670897-0.741517 1.355917-1.475972 2.076249-2.189241z"  horiz-adv-x="1024" />

    
    <glyph glyph-name="saomadenglu" unicode="&#58988;" d="M542.811 831.584v-417.918h417.918V831.584H542.811z m341.338-341.338H619.391V755.004h264.757v-264.758zM676.332 698.063h150.876v-150.876H676.332zM882.149 221.167h76.58v-75.438h-76.58zM746.408 278.607h212.321v76.081H746.408zM141.297 754.703h263.374v-263.374l76.58-76.58V831.283H64.717zM347.73 548.27V697.762H198.238zM617.391 278.609v76.079h-76.079zM825.208 70.792v74.937h-74.937zM746.408 149.592v71.575h-71.575zM882.149 13.851l76.58-76.58V87.369h-76.58z"  horiz-adv-x="1024" />

    
    <glyph glyph-name="gouwuche2" unicode="&#58632;" d="M941.527805 144.21565499999997H387.447784a69.584731 69.584731 0 0 0-69.399172 58.080055l-64.945749 442.930011a66.059105 66.059105 0 0 0 15.58698 52.698836 71.254765 71.254765 0 0 0 53.812192 24.308266h683.600401a70.512528 70.512528 0 0 0 53.626633-24.308266 66.059105 66.059105 0 0 0 15.58698-52.698836l-64.574631-442.744451a69.399172 69.399172 0 0 0-69.213613-58.265615zM322.502035 685.492085a34.328467 34.328467 0 0 1-25.79274-11.504675 28.947248 28.947248 0 0 1-6.865694-23.009352l64.574631-442.93001a32.287315 32.287315 0 0 1 33.029552-26.720537h554.45114a32.101756 32.101756 0 0 1 32.472874 26.163859l64.574631 442.93001a27.648333 27.648333 0 0 1-6.865693 23.009352 33.77179 33.77179 0 0 1-25.607181 11.504675zM972.330646-127.99981400000001a122.654686 122.654686 0 1 0 122.654687 122.654686 122.840246 122.840246 0 0 0-122.654687-122.654686z m0 208.011957a85.54283 85.54283 0 1 1 85.54283-85.357271 85.54283 85.54283 0 0 1-85.54283 85.357271zM347.18142-127.99981400000001a122.654686 122.654686 0 1 0 122.469127 122.654686 122.840246 122.840246 0 0 0-122.469127-122.654686z m0 208.011957a85.54283 85.54283 0 1 1 85.35727-85.357271 85.54283 85.54283 0 0 1-85.35727 85.357271zM284.647941 537.601336a18.555928 18.555928 0 0 0-17.442573 15.401421l-37.111856 215.248769a77.563781 77.563781 0 0 1-63.832394 64.57463L16.329217 858.618897a18.815711 18.815711 0 1 0 6.309016 37.111856l151.416375-25.79274a113.562282 113.562282 0 0 0 94.449675-95.74859l37.111857-214.506532a18.555928 18.555928 0 0 0-15.215861-21.339318 13.731387 13.731387 0 0 0-5.752338-0.742237z"  horiz-adv-x="1095" />

    
    <glyph glyph-name="xiangyoujiantou" unicode="&#58633;" d="M781.219-80.524a56.227 56.227 0 0 0-34.91 12.102l-539.368 433.99a55.668 55.668 0 0 0 0 86.668L744.076 883.712a55.575 55.575 0 0 0 69.539-86.575L330.473 408.948l485.562-390.61a55.575 55.575 0 0 0-34.816-98.955z"  horiz-adv-x="1024" />

    
    <glyph glyph-name="zhaopianpaizhao" unicode="&#58890;" d="M896 614.4c-12.8 12.8-25.6 19.2-38.4 19.2-12.8 0-25.6-6.4-38.4-19.2-12.8-12.8-19.2-25.6-19.2-38.4h108.8c6.4 12.8 0 25.6-12.8 38.4zM512 108.8c121.6 0 217.6 102.4 217.6 224s-96 224-217.6 224-217.6-102.4-217.6-224 96-224 217.6-224z m0 371.2c83.2 0 147.2-64 147.2-147.2s-64-147.2-147.2-147.2c-83.2 0-147.2 64-147.2 147.2 0 83.2 64 147.2 147.2 147.2z m403.2 262.4H512c-19.2 0-38.4-19.2-38.4-38.4s19.2-38.4 38.4-38.4h403.2c19.2 0 38.4-19.2 38.4-38.4V32c0-19.2-19.2-38.4-38.4-38.4H108.8c-19.2 0-38.4 19.2-38.4 38.4V633.6c0 19.2 19.2 38.4 38.4 38.4h108.8c19.2-6.4 38.4 12.8 38.4 32s-19.2 38.4-38.4 38.4H108.8C51.2 742.4 0 691.2 0 633.6v-595.2c0-64 51.2-108.8 108.8-108.8h806.4c57.6 0 108.8 51.2 108.8 108.8V633.6c0 57.6-51.2 108.8-108.8 108.8zM256 768h204.8c12.8 0 25.6 12.8 25.6 25.6V819.2c0 12.8-12.8 25.6-25.6 25.6H256c-12.8 0-25.6-12.8-25.6-25.6v-25.6c0-12.8 12.8-25.6 25.6-25.6z"  horiz-adv-x="1024" />

    
    <glyph glyph-name="paizhao" unicode="&#58942;" d="M870.4 601.6c-12.8 12.8-25.6 19.2-38.4 19.2-12.8 0-25.6-6.4-38.4-19.2-12.8-12.8-12.8-25.6-12.8-38.4h108.8c0 19.2-6.4 32-19.2 38.4zM230.4 748.8H128C64 748.8 19.2 697.6 19.2 633.6v-588.8c0-64 51.2-115.2 108.8-115.2h768c64 0 108.8 51.2 108.8 115.2V633.6c0 64-51.2 115.2-108.8 115.2H512c-25.6 0-38.4-19.2-38.4-44.8s12.8-38.4 38.4-38.4h384c12.8 0 25.6-12.8 25.6-32v-588.8c0-19.2-12.8-32-25.6-32H128c-12.8 0-25.6 12.8-25.6 32V633.6c0 19.2 12.8 32 25.6 32h102.4c25.6 0 38.4 19.2 38.4 44.8s-12.8 38.4-38.4 38.4zM512 544C390.4 544 288 441.6 288 320s102.4-224 224-224 224 102.4 224 224S633.6 544 512 544z m0-371.2c-76.8 0-147.2 64-147.2 147.2 0 83.2 64 147.2 147.2 147.2s147.2-64 147.2-147.2-70.4-147.2-147.2-147.2zM262.4 755.2h204.8c12.8 0 25.6 12.8 25.6 25.6v25.6c-6.4 12.8-12.8 25.6-32 25.6H262.4c-12.8 0-25.6-12.8-25.6-25.6v-25.6c0-12.8 12.8-25.6 25.6-25.6z"  horiz-adv-x="1024" />

    
    <glyph glyph-name="taobaowang2" unicode="&#59067;" d="M1256.448-56.32v72.704c0 59.392-28.672 86.016-104.448 86.016-30.72 0-49.152-2.048-56.32-8.192-6.144-4.096-10.24-14.336-18.432-27.648 20.48 5.12 40.96 8.192 60.416 8.192 43.008 0 60.416-15.36 60.416-49.152 0-3.072 0-7.168-1.024-11.264-11.264 15.36-32.768 24.576-55.296 24.576-50.176 0-83.968-29.696-83.968-76.8s31.744-77.824 77.824-77.824c26.624 0 49.152 9.216 63.488 27.648 0 0 3.072-12.288 17.408-20.48h1.024s1.024 0 1.024-1.024c1.024-1.024 2.048-1.024 3.072-1.024h1.024c1.024 0 2.048 0 2.048-1.024 4.096-1.024 8.192-1.024 12.288-1.024 38.912 0 40.96 31.744 40.96 31.744-20.48-1.024-21.504 7.168-21.504 24.576z m-97.28-27.648c-22.528 0-38.912 18.432-38.912 46.08 0 28.672 16.384 46.08 40.96 46.08 22.528 0 37.888-16.384 37.888-45.056-1.024-29.696-16.384-47.104-39.936-47.104zM654.336 102.4c-66.56 0-106.496-40.96-106.496-109.568 0-69.632 40.96-109.568 106.496-109.568s106.496 40.96 106.496 109.568-40.96 109.568-106.496 109.568z m0-187.392c-27.648 0-41.984 25.6-41.984 77.824s12.288 77.824 41.984 77.824c27.648 0 41.984-25.6 41.984-77.824s-14.336-77.824-41.984-77.824z m272.384 185.344c-26.624 0-46.08-7.168-59.392-23.552V146.432c-1.024 4.096-2.048 8.192-4.096 11.264l-1.024 1.024v1.024c0 1.024-1.024 2.048-2.048 2.048 0 1.024-1.024 1.024-2.048 2.048l-1.024 1.024-1.024 1.024c-3.072 3.072-6.144 5.12-10.24 6.144-6.144 2.048-14.336 4.096-23.552 4.096-24.576 0-33.792-15.36-33.792-15.36-4.096-5.12-6.144-10.24-7.168-17.408 21.504-1.024 25.6-8.192 25.6-29.696v-174.08c0-12.288 1.024-26.624-22.528-25.6 0 0 0-1.024 1.024-3.072 2.048-7.168 8.192-24.576 28.672-26.624 3.072-1.024 6.144-1.024 10.24-1.024 32.768 0 38.912 25.6 38.912 25.6 15.36-18.432 36.864-28.672 62.464-28.672 55.296 0 95.232 41.984 95.232 111.616 1.024 70.656-35.84 108.544-94.208 108.544z m-14.336-183.296c-26.624 0-46.08 23.552-46.08 67.584v21.504c0 43.008 18.432 66.56 45.056 66.56 29.696 0 46.08-27.648 46.08-80.896-2.048-50.176-17.408-74.752-45.056-74.752z m495.616 185.344c-66.56 0-106.496-40.96-106.496-109.568 0-69.632 40.96-109.568 106.496-109.568s106.496 40.96 106.496 109.568-40.96 109.568-106.496 109.568z m0-187.392c-27.648 0-41.984 25.6-41.984 77.824s12.288 77.824 41.984 77.824c27.648 0 41.984-25.6 41.984-77.824s-14.336-77.824-41.984-77.824zM1751.04 73.728c14.336 0 24.576-4.096 32.768-16.384 4.096-5.12 10.24-9.216 18.432-10.24 15.36-2.048 27.648 8.192 27.648 32.768 0 0-34.816 21.504-79.872 21.504-67.584 0-114.688-43.008-114.688-110.592 0-66.56 46.08-108.544 111.616-108.544 32.768 0 61.44 11.264 81.92 32.768-7.168 7.168-14.336 10.24-22.528 10.24-11.264 0-27.648-10.24-48.128-10.24-33.792 0-57.344 29.696-57.344 81.92-1.024 50.176 21.504 76.8 50.176 76.8z m216.064 28.672c-66.56 0-106.496-40.96-106.496-109.568 0-69.632 40.96-109.568 106.496-109.568 66.56 0 106.496 40.96 106.496 109.568s-40.96 109.568-106.496 109.568z m0-187.392c-27.648 0-41.984 25.6-41.984 77.824s12.288 77.824 41.984 77.824c27.648 0 41.984-25.6 41.984-77.824s-14.336-77.824-41.984-77.824zM1576.96-56.32c-17.408 0-29.696-14.336-29.696-29.696 0-17.408 14.336-29.696 29.696-29.696s29.696 14.336 29.696 29.696c1.024 16.384-13.312 29.696-29.696 29.696zM336.896 155.648c-17.408-4.096-48.128-5.12-94.208-5.12-55.296 0-93.184 2.048-111.616 2.048-30.72 0-44.032-8.192-54.272-38.912 18.432 6.144 40.96 6.144 68.608 6.144 21.504 0 24.576-2.048 24.576-18.432v-175.104c0-17.408 7.168-29.696 21.504-35.84 2.048-1.024 5.12-2.048 8.192-3.072 4.096-1.024 8.192-1.024 14.336-1.024 43.008 0 50.176 31.744 50.176 31.744-21.504 0-25.6 7.168-25.6 28.672V101.376c0 16.384 6.144 17.408 27.648 17.408h16.384c31.744-1.024 40.96 5.12 54.272 36.864z m2101.248-210.944V25.6c0 52.224-22.528 76.8-73.728 76.8-26.624 0-49.152-9.216-63.488-28.672-12.288 19.456-32.768 28.672-61.44 28.672-26.624 0-47.104-8.192-61.44-24.576 0 0-4.096 21.504-40.96 21.504-10.24 0-18.432-2.048-23.552-5.12-7.168-4.096-10.24-9.216-10.24-9.216-3.072-4.096-5.12-10.24-6.144-16.384 21.504-1.024 25.6-8.192 25.6-28.672v-151.552h58.368V23.552c0 32.768 10.24 49.152 36.864 49.152 22.528 0 31.744-12.288 31.744-40.96v-144.384h58.368V23.552c0 32.768 10.24 49.152 36.864 49.152 22.528 0 31.744-12.288 31.744-40.96v-102.4s0-4.096 1.024-10.24v-1.024c0-1.024 0-2.048 1.024-2.048 0-1.024 0-1.024 1.024-2.048v-1.024c0-1.024 0-1.024 1.024-2.048v-1.024c0-1.024 1.024-1.024 1.024-2.048 0 0 0-1.024 1.024-1.024 1.024-2.048 2.048-4.096 4.096-6.144l1.024-1.024 1.024-1.024 1.024-1.024 1.024-1.024s1.024-1.024 2.048-1.024l1.024-1.024c1.024 0 1.024-1.024 2.048-1.024 0 0 1.024 0 1.024-1.024 5.12-3.072 12.288-4.096 21.504-4.096 38.912 0 40.96 31.744 40.96 31.744-20.48-2.048-21.504 7.168-21.504 24.576zM501.76-56.32v72.704c0 59.392-28.672 86.016-104.448 86.016-30.72 0-49.152-2.048-56.32-8.192-6.144-4.096-10.24-14.336-18.432-27.648 20.48 5.12 40.96 8.192 60.416 8.192 43.008 0 60.416-15.36 60.416-49.152 0-3.072 0-7.168-1.024-11.264-11.264 15.36-32.768 24.576-55.296 24.576-50.176 0-83.968-29.696-83.968-76.8s31.744-77.824 77.824-77.824c26.624 0 49.152 9.216 63.488 27.648 0 0 3.072-12.288 17.408-20.48h1.024s1.024 0 1.024-1.024c1.024-1.024 2.048-1.024 3.072-1.024h1.024c1.024 0 2.048 0 2.048-1.024 4.096-1.024 8.192-1.024 12.288-1.024 38.912 0 40.96 31.744 40.96 31.744-19.456-1.024-21.504 7.168-21.504 24.576z m-96.256-27.648c-22.528 0-38.912 18.432-38.912 46.08 0 28.672 16.384 46.08 40.96 46.08 22.528 0 37.888-16.384 37.888-45.056-1.024-29.696-17.408-47.104-39.936-47.104zM99.328 722.944l-45.056-68.608 81.92-51.2s54.272-27.648 28.672-80.896C140.288 472.064 21.504 363.52 21.504 363.52l107.52-67.584c74.752 160.768 69.632 139.264 88.064 196.608 19.456 58.368 23.552 104.448-9.216 136.192-41.984 44.032-47.104 47.104-108.544 94.208zM374.784 808.96c17.408 29.696 25.6 49.152 25.6 49.152L301.056 885.76s-40.96-130.048-110.592-190.464c0 0 69.632-38.912 68.608-37.888 20.48 20.48 36.864 38.912 53.248 59.392 16.384 6.144 30.72 14.336 46.08 19.456-18.432-32.768-48.128-81.92-77.824-113.664l41.984-35.84s28.672 27.648 59.392 60.416h34.816v-60.416H278.528V537.6h138.24v-115.712h-5.12c-15.36 1.024-38.912 3.072-48.128 18.432-11.264 18.432-3.072 51.2-2.048 70.656H266.24l-3.072-4.096s-34.816-156.672 101.376-153.6c126.976-3.072 198.656 34.816 234.496 61.44l14.336-52.224 77.824 31.744-53.248 130.048-63.488-20.48 11.264-45.056c-16.384-11.264-34.816-21.504-55.296-27.648v102.4H665.6v49.152H529.408v60.416h135.168v50.176H423.936c17.408 21.504 30.72 40.96 33.792 52.224l-41.984 11.264c181.248 65.536 280.576 54.272 279.552-51.2v-278.528s10.24-96.256-99.328-88.064l-58.368 12.288-14.336-56.32s256-73.728 275.456 123.904c21.504 195.584-5.12 321.536-5.12 321.536S772.096 921.6 374.784 808.96zM1512.448 640v12.288l30.72-29.696s99.328 61.44 96.256 129.024c-2.048 67.584-67.584 80.896-167.936 86.016-30.72 1.024-86.016-2.048-149.504-7.168V874.496h-124.928v-55.296c-71.68-7.168-136.192-16.384-169.984-20.48V822.272H916.48v-195.584h110.592V640h168.96v-62.464h-194.56v-52.224h194.56v-150.528H916.48v-64.512h703.488v64.512h-295.936V525.312h218.112v51.2h-218.112V640h188.416z m-485.376 95.232c94.208 21.504 408.576 71.68 467.968 43.008 69.632-34.816-23.552-86.016-23.552-86.016l1.024-1.024h-445.44v44.032z m1417.216-12.288c-2.048 38.912-23.552 131.072-200.704 148.48-147.456 14.336-326.656-52.224-385.024-75.776V841.728h-122.88V312.32h123.904V499.712l31.744-30.72s38.912 31.744 84.992 74.752c22.528-32.768 37.888-59.392 37.888-59.392l68.608 68.608c-8.192 17.408-24.576 34.816-43.008 54.272 12.288 12.288 24.576 26.624 34.816 38.912 21.504-17.408 45.056-41.984 66.56-66.56-70.656-99.328-152.576-134.144-152.576-134.144l38.912-53.248c58.368 30.72 113.664 78.848 159.744 129.024 26.624-35.84 46.08-64.512 46.08-64.512l87.04 73.728c-9.216 17.408-36.864 40.96-69.632 66.56 34.816 46.08 61.44 84.992 73.728 105.472 2.048-76.8 3.072-216.064-2.048-282.624-7.168-100.352-107.52-35.84-107.52-35.84l-5.12-53.248s45.056-28.672 117.76-41.984c125.952-21.504 114.688 120.832 116.736 195.584 3.072 72.704 5.12 160.768 0 238.592z m-219.136 55.296c-10.24-52.224-26.624-97.28-46.08-134.144-28.672 19.456-55.296 35.84-71.68 47.104 6.144 11.264 11.264 22.528 12.288 31.744l-91.136 46.08s-19.456-51.2-52.224-108.544c-38.912 29.696-74.752 52.224-74.752 52.224l-33.792-44.032c20.48-11.264 46.08-38.912 69.632-69.632-22.528-29.696-49.152-56.32-76.8-73.728V724.992c104.448 49.152 265.216 94.208 364.544 100.352 57.344 3.072 82.944-18.432 93.184-37.888 5.12-10.24 6.144-27.648 6.144-35.84 0-7.168 1.024-19.456 1.024-31.744l-100.352 58.368zM157.696 748.544c38.912 0 70.656 28.672 70.656 62.464 0 34.816-31.744 62.464-70.656 62.464-38.912 2.048-70.656-26.624-70.656-62.464s31.744-62.464 70.656-62.464zM1387.52 451.584c2.048 17.408 18.432 29.696 36.864 27.648 19.456-1.024 32.768-17.408 30.72-32.768-2.048-17.408-18.432-29.696-36.864-27.648-17.408 1.024-29.696 12.288-30.72 27.648v5.12z"  horiz-adv-x="2491" />

    
    <glyph glyph-name="denglu1" unicode="&#58968;" d="M601.8-31.6H424.1c-162.9 0-291.3 0-291.3 79v14.8c0 153.1 128.4 281.4 291.3 281.4h177.8c162.9 0 291.3-128.4 291.3-281.4v-14.8c0-79-138.3-79-291.4-79z m-316 602.4C285.8 694.3 389.5 798 512.9 798S740 694.3 740 570.9 636.4 343.7 512.9 343.7 285.8 447.4 285.8 570.8z"  horiz-adv-x="1024" />

    
    <glyph glyph-name="saomadenglu1" unicode="&#58926;" d="M998.4-51.2c15.36 0 25.6-10.24 25.6-25.6v-51.2l-76.8 76.8h51.2z m-79.36 307.2c15.36 0 25.6-10.24 25.6-25.6v-25.6c0-15.36 10.24-25.6 25.6-25.6H1024v-128c0-15.36-10.24-25.6-25.6-25.6h-28.16c-15.36 0-25.6-10.24-25.6-25.6v-51.2l-158.72 153.6h15.36c15.36 0 25.6 10.24 25.6 25.6v25.6c0 15.36-10.24 25.6-25.6 25.6h-53.76v-38.4l-79.36 76.8V256h250.88z m2.56 204.8c12.8 0 25.6-10.24 25.6-25.6v-25.6c0-12.8 12.8-25.6 25.6-25.6h25.6c15.36 0 25.6-10.24 25.6-25.6v-25.6c0-15.36-10.24-25.6-25.6-25.6h-179.2c-15.36 0-25.6 10.24-25.6 25.6v25.6c0 15.36 10.24 25.6 25.6 25.6h25.6c15.36 0 25.6 10.24 25.6 25.6v25.6c0 15.36 10.24 25.6 25.6 25.6h25.6z m-353.28 128c15.36 0 25.6-10.24 25.6-25.6v-69.12c0-15.36 10.24-25.6 25.6-25.6H768c15.36 0 25.6-10.24 25.6-25.6v-28.16c0-15.36-10.24-25.6-25.6-25.6h-28.16c-15.36 0-25.6-10.24-25.6-25.6V307.2h-120.32v53.76c0 15.36-10.24 25.6-25.6 25.6h-53.76L435.2 468.48h53.76c15.36 0 25.6 10.24 25.6 25.6V563.2c0 15.36 10.24 25.6 25.6 25.6h28.16zM332.8 896c15.36 0 25.6-10.24 25.6-25.6v-332.8l-79.36 79.36V791.04c0 15.36-10.24 25.6-25.6 25.6H79.36L0 896h332.8z m665.6 0c15.36 0 25.6-10.24 25.6-25.6v-307.2c0-15.36-10.24-25.6-25.6-25.6H691.2c-15.36 0-25.6 10.24-25.6 25.6V870.4c0 15.36 10.24 25.6 25.6 25.6h307.2zM563.2 819.2c15.36 0 25.6-10.24 25.6-25.6v-102.4c0-15.36-10.24-25.6-25.6-25.6h-25.6c-15.36 0-25.6-10.24-25.6-25.6v-25.6c0-15.36-10.24-25.6-25.6-25.6h-25.6c-15.36 0-25.6 10.24-25.6 25.6V716.8c0 15.36 10.24 25.6 25.6 25.6h25.6c15.36 0 25.6 10.24 25.6 25.6V793.6c0 15.36 10.24 25.6 25.6 25.6h25.6z m358.4 0h-153.6c-15.36 0-25.6-10.24-25.6-25.6v-153.6c0-15.36 10.24-25.6 25.6-25.6h153.6c15.36 0 25.6 10.24 25.6 25.6V793.6c0 15.36-10.24 25.6-25.6 25.6z m-51.2-51.2c15.36 0 25.6-10.24 25.6-25.6v-51.2c0-15.36-10.24-25.6-25.6-25.6h-51.2c-15.36 0-25.6 10.24-25.6 25.6V742.4c0 15.36 10.24 25.6 25.6 25.6h51.2zM204.8 768c15.36 0 25.6-10.24 25.6-25.6v-76.8L128 768h76.8z m281.6 128c15.36 0 25.6-10.24 25.6-25.6v-25.6c0-15.36-10.24-25.6-25.6-25.6h-25.6c-15.36 0-25.6 10.24-25.6 25.6V870.4c0 15.36 10.24 25.6 25.6 25.6h25.6z"  horiz-adv-x="1024" />

    
    <glyph glyph-name="xiala4" unicode="&#58888;" d="M560.429 118.743c-14.014-14.013-33.032-27.026-51.05-23.022-18.017-3.003-35.034 11.01-49.047 23.022L26.912 554.165c-22.02 22.021-22.02 58.056 0 80.077s58.057 22.022 80.078 0l403.39-414.4 404.392 414.4c22.021 22.022 58.056 22.022 80.077 0s22.022-58.056 0-80.077L560.43 118.743z"  horiz-adv-x="1024" />

    
    <glyph glyph-name="xiazai" unicode="&#58914;" d="M510.555033 354.137347m-350.404516 0a350.404516 350.404516 0 1 1 700.809031 0 350.404516 350.404516 0 1 1-700.809031 0ZM214.336783 396.28222l211.928504-210.724365 390.14111 269.727187-20.470367 25.286924-366.058325-254.073377-192.662277 192.662276z"  horiz-adv-x="1024" />

    
    <glyph glyph-name="zhanghaodenglu1" unicode="&#59156;" d="M761.6-64L512 179.2h454.4V774.4H60.8v-160L0 675.2V777.6c0 16 6.4 28.8 16 38.4 12.8 9.6 25.6 16 41.6 16h912c16 0 28.8-6.4 41.6-16 6.4-9.6 12.8-25.6 12.8-38.4v-601.6c0-28.8-25.6-54.4-57.6-54.4h-252.8v-102.4h137.6c16 0 28.8-6.4 38.4-19.2 6.4-12.8 6.4-28.8 0-41.6s-22.4-19.2-38.4-19.2l-89.6-3.2zM409.6 243.2l-252.8 265.6V678.4h681.6v-435.2H409.6z"  horiz-adv-x="1024" />

    
    <glyph glyph-name="shoucang1" unicode="&#59179;" d="M752.00029297-43.200292969999964c-9.60029297 0-20.80019531 3.20009766-30.40048828 8.00068359L513.59960938 68.79960936999998 303.99980469-35.19960937999997c-20.80019531-11.20078125-47.99970703-9.60029297-67.19941406 4.79882813-19.20058594 14.40087891-30.40048828 40.00078125-25.60078125 64.00107422l43.2 223.99980469L89.60029297 411.20039063c-17.60009766 17.59921875-24.00029297 44.79960938-17.60009766 67.19941406 7.99980469 24.00029297 27.19951172 41.60039063 52.79941407 44.80048828l228.80039062 41.59951172L455.99960937 772.8c11.20078125 22.39980469 33.60058594 36.79980469 57.6 36.79980469s48.00058594-14.4 57.6-36.79980469L673.60009766 564.79980469l228.79951171-39.99902344c24.00029297-3.20097656 44.80048828-20.80107422 51.2006836-44.80048828 7.99980469-24.00029297 1.59960938-49.60019531-16.00048828-67.20029297L772.79960937 257.60009765999996l41.60039063-223.99980469c4.79970703-25.59990234-6.40019531-49.60019531-25.59990234-64.00019531-9.60029297-7.99980469-22.39980469-12.80039063-36.79980469-12.80039063z"  horiz-adv-x="1024" />

    


  </font>
</defs>
</svg>
